<?xml version="1.0" encoding="UTF-8"?>
<svg xmlns="http://www.w3.org/2000/svg" width="39" height="17">
<title>Österreichischer Rundfunk logo</title>    
<path fill="#D32822" d="M39.073 17H0V0h39.073"/><path fill="#FFF" d="M28.171 13.23h2.27v-3.188h4.288v-2.23H30.44V5.995h5.261V3.763h-7.53v9.467zM10.615 8.5c0 1.493-1.253 2.685-2.595 2.685-1.357 0-2.595-1.192-2.595-2.685 0-1.494 1.238-2.685 2.595-2.685 1.341 0 2.595 1.192 2.595 2.685m2.343 0c0-2.776-2.196-4.917-4.938-4.917-2.743 0-4.94 2.142-4.94 4.917s2.197 4.917 4.94 4.917c2.742 0 4.938-2.141 4.938-4.917m3.271 4.736H18.5v-2.76h1.696l1.784 2.76h2.83l-2.285-3.318c1.076-.483 1.828-1.523 1.828-2.805 0-1.886-1.355-3.35-3.42-3.35h-4.704v9.473zM20.8 8.244h-2.3V5.996h2.3c.987 0 1.282.498 1.282 1.117 0 .633-.295 1.131-1.282 1.131"/></svg>