<?xml version="1.0" encoding="UTF-8" standalone="no"?>
<svg
   version="1.1"
   viewBox="0 0 228.3 150"
   xml:space="preserve"
   id="svg3"
   sodipodi:docname="srf.svg"
   width="228.3"
   height="150"
   xmlns:inkscape="http://www.inkscape.org/namespaces/inkscape"
   xmlns:sodipodi="http://sodipodi.sourceforge.net/DTD/sodipodi-0.dtd"
   xmlns="http://www.w3.org/2000/svg"
   xmlns:svg="http://www.w3.org/2000/svg"><defs
   id="defs3" /><sodipodi:namedview
   id="namedview3"
   pagecolor="#505050"
   bordercolor="#ffffff"
   borderopacity="1"
   inkscape:showpageshadow="0"
   inkscape:pageopacity="0"
   inkscape:pagecheckerboard="1"
   inkscape:deskcolor="#d1d1d1" />&#10;<title
   id="title1">Schweizer Radio und Fersehen logo</title>&#10;<style
   type="text/css"
   id="style1">&#10;	.st0{fill:#AF001E;}&#10;	.st1{fill:#FFFFFF;}&#10;	.st2{fill:#333333;}&#10;</style>&#10;	<path
   class="st0"
   d="M 0,150 H 228.3 V 0 H 0 Z"
   id="path1" />&#10;	<path
   class="st1"
   d="m 54,38.7 c -18.2,0 -27.1,7.9 -27.1,20.5 0,11.4 6.2,18.1 16.9,20.9 l 8.2,2.1 c 6.7,1.8 9.6,3.7 9.6,7.9 0,6.2 -4.2,7.3 -14.4,7.3 -4.6,0 -12.7,-0.7 -15.5,-0.9 -2.9,-0.2 -3.7,0.1 -4.1,2.6 l -1.3,8.5 c -0.2,1.7 0.6,2.3 2,2.5 3.2,0.4 11.3,1 19.1,1 17.6,0 30.4,-5.7 30.4,-22.1 0,-9.6 -4.2,-16.8 -18.8,-20.6 l -8.2,-2.1 c -5.5,-1.4 -8.1,-3.2 -8.1,-7.3 0,-5.8 5.3,-6.8 10.4,-6.8 6.9,0 13.8,0.6 16.6,0.8 2.9,0.2 3.7,-0.1 4.1,-2.6 l 1.3,-8.3 c 0.2,-1.7 -0.6,-2.3 -2,-2.5 C 70,39.2 62.9,38.7 54,38.7 Z m 36.2,0.7 c -2.2,0 -2.9,0.8 -2.9,3 v 65.1 c 0,2.2 0.7,3 2.9,3 h 10.2 c 2.2,0 2.9,-0.8 2.9,-3 V 52.6 h 10.5 c 6.6,0 9.8,2.4 9.8,8.6 0,5.6 -2.5,7.4 -5.1,8.5 -3.2,1.3 -4.3,-0.1 -5.3,4.1 l -1.1,4.7 c -0.3,1.3 -0.5,2 -0.5,2.4 0,1.1 0.3,2 1.1,3.3 l 13.2,23.7 c 1.1,1.9 2,2.7 4.6,2.7 h 12.1 c 1.5,0 3.4,-1 1.7,-3.8 L 128,80 c 5.4,-3.4 11.5,-8.3 11.5,-19 0,-13.8 -7.7,-21.6 -24.7,-21.6 z m 67,0 c -2.2,0 -2.9,0.8 -2.9,3 v 65.1 c 0,2.2 0.7,3 2.9,3 h 10.2 c 2.2,0 2.8,-0.8 2.8,-3 V 81.9 h 26.3 c 2.2,0 2.9,-0.8 2.9,-3 v -7.8 c 0,-2.2 -0.7,-3 -2.9,-3 h -26.3 v -15 h 29 c 2.2,0 2.9,-0.8 2.9,-3 v -7.7 c 0,-2.2 -0.7,-3 -2.9,-3 z"
   id="path2" />&#10;	&#10;</svg>
