<?xml version="1.0" encoding="UTF-8"?>
<svg height="16px" viewBox="0 0 16 16" width="16px" xmlns="http://www.w3.org/2000/svg">
    <path d="m 2 4 c -0.554688 0 -1 0.445312 -1 1 v 9 c 0 0.554688 0.445312 1 1 1 h 12 c 0.554688 0 1 -0.445312 1 -1 v -9 c 0 -0.554688 -0.445312 -1 -1 -1 z m 1.5 2 h 9 c 0.277344 0 0.5 0.222656 0.5 0.5 v 6 c 0 0.277344 -0.222656 0.5 -0.5 0.5 h -9 c -0.277344 0 -0.5 -0.222656 -0.5 -0.5 v -6 c 0 -0.277344 0.222656 -0.5 0.5 -0.5 z m 0 0"/>
    <path d="m 9.5 3 h 1 c 0.277344 0 0.5 0.222656 0.5 0.5 v 1 c 0 0.277344 -0.222656 0.5 -0.5 0.5 h -1 c -0.277344 0 -0.5 -0.222656 -0.5 -0.5 v -1 c 0 -0.277344 0.222656 -0.5 0.5 -0.5 z m 0 0"/>
    <path d="m 7.855469 1.148438 l 2.121093 2.121093 c 0.195313 0.195313 0.195313 0.511719 0 0.707031 c -0.195312 0.195313 -0.511718 0.195313 -0.707031 0 l -2.121093 -2.121093 c -0.195313 -0.195313 -0.195313 -0.511719 0 -0.707031 c 0.195312 -0.195313 0.511718 -0.195313 0.707031 0 z m 0 0"/>
    <path d="m 12.851562 1.855469 l -2.121093 2.121093 c -0.195313 0.195313 -0.511719 0.195313 -0.707031 0 c -0.195313 -0.195312 -0.195313 -0.511718 0 -0.707031 l 2.121093 -2.121093 c 0.195313 -0.195313 0.511719 -0.195313 0.707031 0 c 0.195313 0.195312 0.195313 0.511718 0 0.707031 z m 0 0"/>
    <path d="m 4.5 7 c -0.277344 0 -0.5 0.222656 -0.5 0.5 v 4 c 0 0.277344 0.222656 0.5 0.5 0.5 h 5 c 0.277344 0 0.5 -0.222656 0.5 -0.5 v -4 c 0 -0.277344 -0.222656 -0.5 -0.5 -0.5 z m 0.75 1 h 3.5 c 0.136719 0 0.25 0.113281 0.25 0.25 v 2.5 c 0 0.136719 -0.113281 0.25 -0.25 0.25 h -3.5 c -0.136719 0 -0.25 -0.113281 -0.25 -0.25 v -2.5 c 0 -0.136719 0.113281 -0.25 0.25 -0.25 z m 0 0"/>
    <path d="m 12 7.5 c 0 0.277344 -0.222656 0.5 -0.5 0.5 s -0.5 -0.222656 -0.5 -0.5 s 0.222656 -0.5 0.5 -0.5 s 0.5 0.222656 0.5 0.5 z m 0 0"/>
    <path d="m 12 9.5 c 0 0.277344 -0.222656 0.5 -0.5 0.5 s -0.5 -0.222656 -0.5 -0.5 s 0.222656 -0.5 0.5 -0.5 s 0.5 0.222656 0.5 0.5 z m 0 0"/>
    <path d="m 12 11.5 c 0 0.277344 -0.222656 0.5 -0.5 0.5 s -0.5 -0.222656 -0.5 -0.5 s 0.222656 -0.5 0.5 -0.5 s 0.5 0.222656 0.5 0.5 z m 0 0"/>
</svg>
