<?xml version="1.0" encoding="UTF-8"?>
<svg height="128px" viewBox="0 0 128 128" width="128px" xmlns="http://www.w3.org/2000/svg" xmlns:xlink="http://www.w3.org/1999/xlink">
    <defs>
        <filter id="a" height="100%" width="100%" x="0%" y="0%">
            <feColorMatrix color-interpolation-filters="sRGB" values="0 0 0 0 1 0 0 0 0 1 0 0 0 0 1 0 0 0 1 0"/>
        </filter>
        <clipPath id="b">
            <path d="m 7 8 h 113 v 113 h -113 z m 0 0"/>
        </clipPath>
        <clipPath id="c">
            <path d="m 69 10.785156 l 48.769531 48.769532 c 2.882813 2.882812 2.882813 7.558593 0 10.441406 l -48.769531 48.769531 c -2.882812 2.882813 -7.558594 2.882813 -10.441406 0 l -48.769532 -48.769531 c -2.882812 -2.882813 -2.882812 -7.558594 0 -10.441406 l 48.769532 -48.769532 c 2.882812 -2.882812 7.558594 -2.882812 10.441406 0 z m 0 0"/>
        </clipPath>
        <clipPath id="d">
            <path d="m 49 35 h 71 v 86 h -71 z m 0 0"/>
        </clipPath>
        <clipPath id="e">
            <path d="m 69 10.785156 l 48.769531 48.769532 c 2.882813 2.882812 2.882813 7.558593 0 10.441406 l -48.769531 48.769531 c -2.882812 2.882813 -7.558594 2.882813 -10.441406 0 l -48.769532 -48.769531 c -2.882812 -2.882813 -2.882812 -7.558594 0 -10.441406 l 48.769532 -48.769532 c 2.882812 -2.882812 7.558594 -2.882812 10.441406 0 z m 0 0"/>
        </clipPath>
        <clipPath id="f">
            <path d="m 7 8 h 54 v 85 h -54 z m 0 0"/>
        </clipPath>
        <clipPath id="g">
            <path d="m 69 10.785156 l 48.769531 48.769532 c 2.882813 2.882812 2.882813 7.558593 0 10.441406 l -48.769531 48.769531 c -2.882812 2.882813 -7.558594 2.882813 -10.441406 0 l -48.769532 -48.769531 c -2.882812 -2.882813 -2.882812 -7.558594 0 -10.441406 l 48.769532 -48.769532 c 2.882812 -2.882812 7.558594 -2.882812 10.441406 0 z m 0 0"/>
        </clipPath>
        <mask id="h">
            <g filter="url(#a)">
                <rect fill-opacity="0.534" height="153.6" width="153.6" x="-12.8" y="-12.8"/>
            </g>
        </mask>
        <clipPath id="i">
            <path d="m 7 8 h 113 v 113 h -113 z m 0 0"/>
        </clipPath>
        <clipPath id="j">
            <path d="m 69 10.785156 l 48.769531 48.769532 c 2.882813 2.882812 2.882813 7.558593 0 10.441406 l -48.769531 48.769531 c -2.882812 2.882813 -7.558594 2.882813 -10.441406 0 l -48.769532 -48.769531 c -2.882812 -2.882813 -2.882812 -7.558594 0 -10.441406 l 48.769532 -48.769532 c 2.882812 -2.882812 7.558594 -2.882812 10.441406 0 z m 0 0"/>
        </clipPath>
        <clipPath id="k">
            <path d="m 49 35 h 71 v 86 h -71 z m 0 0"/>
        </clipPath>
        <clipPath id="l">
            <path d="m 69 10.785156 l 48.769531 48.769532 c 2.882813 2.882812 2.882813 7.558593 0 10.441406 l -48.769531 48.769531 c -2.882812 2.882813 -7.558594 2.882813 -10.441406 0 l -48.769532 -48.769531 c -2.882812 -2.882813 -2.882812 -7.558594 0 -10.441406 l 48.769532 -48.769532 c 2.882812 -2.882812 7.558594 -2.882812 10.441406 0 z m 0 0"/>
        </clipPath>
        <clipPath id="m">
            <path d="m 7 8 h 54 v 85 h -54 z m 0 0"/>
        </clipPath>
        <clipPath id="n">
            <path d="m 69 10.785156 l 48.769531 48.769532 c 2.882813 2.882812 2.882813 7.558593 0 10.441406 l -48.769531 48.769531 c -2.882812 2.882813 -7.558594 2.882813 -10.441406 0 l -48.769532 -48.769531 c -2.882812 -2.882813 -2.882812 -7.558594 0 -10.441406 l 48.769532 -48.769532 c 2.882812 -2.882812 7.558594 -2.882812 10.441406 0 z m 0 0"/>
        </clipPath>
        <clipPath id="o">
            <path d="m 0 0 h 128 v 128 h -128 z m 0 0"/>
        </clipPath>
        <mask id="p">
            <g filter="url(#a)">
                <rect fill-opacity="0.534" height="221.184" width="221.184" x="-46.592" y="-46.592"/>
            </g>
        </mask>
        <clipPath id="q">
            <rect height="152" width="192"/>
        </clipPath>
        <g id="r" clip-path="url(#q)">
            <path d="m 16.449219 77.785156 c -1.167969 2.878906 -0.582031 6.289063 1.757812 8.628906 l 47.9375 47.933594 c 3.121094 3.125 8.148438 3.125 11.273438 0 l 47.933593 -47.933594 c 2.339844 -2.339843 2.925782 -5.75 1.761719 -8.628906 c -0.390625 0.964844 -0.976562 1.867188 -1.761719 2.648438 l -47.933593 47.9375 c -3.125 3.121094 -8.152344 3.121094 -11.273438 0 l -47.9375 -47.9375 c -0.78125 -0.78125 -1.371093 -1.683594 -1.757812 -2.648438 z m 0 0" fill="#1a5fb4"/>
        </g>
        <clipPath id="s">
            <rect height="128" width="128"/>
        </clipPath>
        <clipPath id="t">
            <rect height="128" width="128"/>
        </clipPath>
        <mask id="u">
            <g filter="url(#a)">
                <g clip-path="url(#t)" filter="url(#a)">
                    <g clip-path="url(#s)">
                        <g clip-path="url(#i)">
                            <g clip-path="url(#j)">
                                <path d="m 65.1875 6.976562 l 56.394531 56.390626 c 0.777344 0.777343 0.777344 2.039062 0 2.816406 l -56.394531 56.394531 c -0.777344 0.777344 -2.039062 0.777344 -2.816406 0 l -56.394532 -56.394531 c -0.777343 -0.777344 -0.777343 -2.039063 0 -2.816406 l 56.394532 -56.390626 c 0.777344 -0.78125 2.039062 -0.78125 2.816406 0 z m 0 0" fill="#3584e4"/>
                            </g>
                        </g>
                        <g clip-path="url(#k)">
                            <g clip-path="url(#l)">
                                <path d="m 99.0625 35.6875 l -2.28125 6.882812 c -0.109375 -0.007812 -0.222656 -0.011718 -0.332031 -0.019531 c -1.847657 0.015625 -3.691407 0.160157 -5.519531 0.429688 l -3.183594 -6.578125 c -2.304688 0.445312 -4.570313 1.058594 -6.785156 1.839844 l 0.527343 7.246093 c -1.808593 0.742188 -3.5625 1.613281 -5.242187 2.613281 l -5.472656 -4.871093 c -1.957032 1.296875 -3.8125 2.738281 -5.550782 4.308593 l 3.253906 6.476563 c -1.386718 1.382813 -2.671874 2.863281 -3.839843 4.433594 l -6.933594 -2.410157 c -1.308594 1.949219 -2.464844 3.992188 -3.464844 6.109376 l 5.472657 4.734374 c -0.75 1.808594 -1.363282 3.667969 -1.839844 5.570313 l -7.320313 0.425781 c -0.464843 2.296875 -0.757812 4.628906 -0.871093 6.972656 l 6.878906 2.277344 c -0.003906 0.113282 -0.011719 0.222656 -0.015625 0.332032 c 0.015625 1.847656 0.15625 3.691406 0.425781 5.519531 l -6.574219 3.183593 c 0.441407 2.304688 1.058594 4.570313 1.839844 6.785157 l 7.246094 -0.527344 c 0.742187 1.808594 1.613281 3.5625 2.609375 5.242187 l -4.867188 5.472657 c 1.296875 1.957031 2.734375 3.8125 4.308594 5.550781 l 6.476562 -3.253906 c 1.382813 1.386718 2.863282 2.671875 4.433594 3.839844 l -2.410156 6.933593 c 1.945312 1.308594 3.988281 2.464844 6.109375 3.464844 l 4.730469 -5.472656 c 1.808594 0.75 3.671875 1.363281 5.570312 1.839843 l 0.425782 7.320313 c 2.300781 0.464844 4.632812 0.757813 6.972656 0.875 l 2.28125 -6.882813 c 0.109375 0.003907 0.21875 0.011719 0.328125 0.015626 c 1.847656 -0.015626 3.695312 -0.15625 5.523437 -0.425782 l 3.183594 6.574219 c 2.304688 -0.441406 4.570312 -1.058594 6.78125 -1.839844 l -0.527344 -7.246093 c 1.8125 -0.738282 3.5625 -1.613282 5.246094 -2.609376 l 5.472656 4.867188 c 1.953125 -1.296875 3.808594 -2.734375 5.550782 -4.308594 l -3.253907 -6.476562 c 1.386719 -1.382813 2.667969 -2.863282 3.839844 -4.433594 l 6.933594 2.410156 c 1.304687 -1.945312 2.464843 -3.988281 3.464843 -6.109375 l -5.476562 -4.730469 c 0.75 -1.808593 1.367188 -3.671874 1.84375 -5.570312 l 7.320312 -0.425781 c 0.464844 -2.300781 0.757813 -4.628907 0.871094 -6.972657 l -6.882812 -2.28125 c 0.007812 -0.109374 0.011718 -0.21875 0.019531 -0.328124 c -0.015625 -1.847657 -0.160156 -3.695313 -0.429687 -5.523438 l 6.578124 -3.183594 c -0.445312 -2.304687 -1.058593 -4.570312 -1.839843 -6.78125 l -7.246094 0.527344 c -0.742187 -1.8125 -1.613281 -3.5625 -2.613281 -5.246094 l 4.871094 -5.472656 c -1.296876 -1.953125 -2.738282 -3.808594 -4.308594 -5.550781 l -6.476563 3.253906 c -1.382812 -1.386719 -2.863281 -2.667969 -4.433593 -3.839844 l 2.410156 -6.933593 c -1.945313 -1.304688 -3.988282 -2.464844 -6.109375 -3.464844 l -4.734375 5.476562 c -1.808594 -0.75 -3.667969 -1.367187 -5.570313 -1.84375 l -0.425781 -7.320312 c -2.296875 -0.464844 -4.628906 -0.753906 -6.96875 -0.871094 z m -2.613281 17.488281 c 16.175781 0 29.285156 13.109375 29.285156 29.285157 c 0 16.171874 -13.109375 29.28125 -29.285156 29.28125 c -16.171875 0 -29.28125 -13.109376 -29.28125 -29.28125 c 0 -16.175782 13.109375 -29.285157 29.28125 -29.285157 z m 0 0" fill="#98c1f1"/>
                            </g>
                        </g>
                        <g clip-path="url(#m)">
                            <g clip-path="url(#n)">
                                <path d="m 16.65625 -1.375 l -2.28125 6.882812 c -0.109375 -0.003906 -0.21875 -0.011718 -0.328125 -0.015624 c -1.847656 0.015624 -3.695313 0.15625 -5.523437 0.425781 l -3.183594 -6.574219 c -2.304688 0.441406 -4.570313 1.058594 -6.78125 1.839844 l 0.527344 7.246094 c -1.8125 0.738281 -3.5625 1.613281 -5.246094 2.609374 l -5.472656 -4.867187 c -1.953126 1.292969 -3.808594 2.734375 -5.550782 4.308594 l 3.253906 6.476562 c -1.386718 1.378907 -2.667968 2.863281 -3.839843 4.429688 l -6.933594 -2.410157 c -1.304687 1.949219 -2.464844 3.992188 -3.464844 6.113282 l 5.476563 4.730468 c -0.75 1.808594 -1.367188 3.671876 -1.84375 5.570313 l -7.320313 0.425781 c -0.464843 2.300782 -0.757812 4.628906 -0.871093 6.972656 l 6.882812 2.28125 c -0.007812 0.109376 -0.011719 0.21875 -0.019531 0.328126 c 0.015625 1.847656 0.160156 3.691406 0.429687 5.519531 l -6.578125 3.1875 c 0.445313 2.300781 1.058594 4.570312 1.839844 6.78125 l 7.246094 -0.527344 c 0.742187 1.808594 1.613281 3.5625 2.613281 5.246094 l -4.871094 5.472656 c 1.296875 1.953125 2.738282 3.808594 4.308594 5.550781 l 6.476562 -3.253906 c 1.382813 1.386719 2.863282 2.667969 4.433594 3.835938 l -2.410156 6.9375 c 1.945312 1.304687 3.988281 2.464843 6.109375 3.464843 l 4.734375 -5.476562 c 1.808594 0.75 3.667969 1.367187 5.570312 1.84375 l 0.425782 7.320312 c 2.296875 0.464844 4.628906 0.753907 6.96875 0.871094 l 2.28125 -6.882813 c 0.109375 0.007813 0.222656 0.011719 0.332031 0.015626 c 1.847656 -0.011719 3.691406 -0.15625 5.519531 -0.425782 l 3.183594 6.574219 c 2.304688 -0.441406 4.570312 -1.054687 6.785156 -1.835937 l -0.527344 -7.246094 c 1.808594 -0.742188 3.5625 -1.613282 5.242188 -2.613282 l 5.472656 4.871094 c 1.957032 -1.296875 3.8125 -2.738281 5.550782 -4.308594 l -3.253907 -6.480468 c 1.386719 -1.378906 2.671875 -2.859375 3.839844 -4.429688 l 6.933594 2.410156 c 1.308593 -1.949218 2.464843 -3.992187 3.464843 -6.113281 l -5.472656 -4.730469 c 0.75 -1.808593 1.363282 -3.671874 1.839844 -5.570312 l 7.320312 -0.425781 c 0.464844 -2.296875 0.757813 -4.628907 0.871094 -6.972657 l -6.878906 -2.28125 c 0.003906 -0.109374 0.011719 -0.21875 0.015625 -0.328124 c -0.015625 -1.847657 -0.15625 -3.691407 -0.429687 -5.519532 l 6.578124 -3.183594 c -0.441406 -2.304687 -1.058593 -4.574218 -1.839843 -6.785156 l -7.246094 0.527344 c -0.742187 -1.808594 -1.613281 -3.5625 -2.609375 -5.242188 l 4.867188 -5.472656 c -1.296876 -1.957031 -2.734376 -3.8125 -4.308594 -5.550781 l -6.476563 3.25 c -1.382812 -1.382813 -2.863281 -2.667969 -4.433593 -3.835937 l 2.410156 -6.933594 c -1.945313 -1.308594 -3.988282 -2.464844 -6.109375 -3.464844 l -4.730469 5.472656 c -1.808594 -0.75 -3.671875 -1.363281 -5.570312 -1.839844 l -0.425782 -7.324218 c -2.300781 -0.460938 -4.632812 -0.753906 -6.972656 -0.871094 z m 0 0" fill="#1a5fb4"/>
                            </g>
                        </g>
                        <g clip-path="url(#o)">
                            <g mask="url(#p)">
                                <use transform="matrix(1 0 0 1 -8 -16)" xlink:href="#r"/>
                            </g>
                        </g>
                    </g>
                </g>
            </g>
        </mask>
        <mask id="v">
            <g filter="url(#a)">
                <rect fill-opacity="0.8" height="184.32" width="184.32" x="-28.16" y="-28.16"/>
            </g>
        </mask>
        <linearGradient id="w" gradientTransform="matrix(0 0.37 -0.98462 0 295.38501 -30.360001)" gradientUnits="userSpaceOnUse" x1="300" x2="428" y1="235" y2="235">
            <stop offset="0" stop-color="#f9f06b"/>
            <stop offset="1" stop-color="#f5c211"/>
        </linearGradient>
        <clipPath id="x">
            <rect height="128" width="128"/>
        </clipPath>
        <clipPath id="y">
            <rect height="128" width="128"/>
        </clipPath>
    </defs>
    <g clip-path="url(#b)">
        <g clip-path="url(#c)">
            <path d="m 65.1875 6.976562 l 56.394531 56.390626 c 0.777344 0.777343 0.777344 2.039062 0 2.816406 l -56.394531 56.394531 c -0.777344 0.777344 -2.039062 0.777344 -2.816406 0 l -56.394532 -56.394531 c -0.777343 -0.777344 -0.777343 -2.039063 0 -2.816406 l 56.394532 -56.390626 c 0.777344 -0.78125 2.039062 -0.78125 2.816406 0 z m 0 0" fill="#3584e4"/>
        </g>
    </g>
    <g clip-path="url(#d)">
        <g clip-path="url(#e)">
            <path d="m 99.0625 35.6875 l -2.28125 6.882812 c -0.109375 -0.007812 -0.222656 -0.011718 -0.332031 -0.019531 c -1.847657 0.015625 -3.691407 0.160157 -5.519531 0.429688 l -3.183594 -6.578125 c -2.304688 0.445312 -4.570313 1.058594 -6.785156 1.839844 l 0.527343 7.246093 c -1.808593 0.742188 -3.5625 1.613281 -5.242187 2.613281 l -5.472656 -4.871093 c -1.957032 1.296875 -3.8125 2.738281 -5.550782 4.308593 l 3.253906 6.476563 c -1.386718 1.382813 -2.671874 2.863281 -3.839843 4.433594 l -6.933594 -2.410157 c -1.308594 1.949219 -2.464844 3.992188 -3.464844 6.109376 l 5.472657 4.734374 c -0.75 1.808594 -1.363282 3.667969 -1.839844 5.570313 l -7.320313 0.425781 c -0.464843 2.296875 -0.757812 4.628906 -0.871093 6.972656 l 6.878906 2.277344 c -0.003906 0.113282 -0.011719 0.222656 -0.015625 0.332032 c 0.015625 1.847656 0.15625 3.691406 0.425781 5.519531 l -6.574219 3.183593 c 0.441407 2.304688 1.058594 4.570313 1.839844 6.785157 l 7.246094 -0.527344 c 0.742187 1.808594 1.613281 3.5625 2.609375 5.242187 l -4.867188 5.472657 c 1.296875 1.957031 2.734375 3.8125 4.308594 5.550781 l 6.476562 -3.253906 c 1.382813 1.386718 2.863282 2.671875 4.433594 3.839844 l -2.410156 6.933593 c 1.945312 1.308594 3.988281 2.464844 6.109375 3.464844 l 4.730469 -5.472656 c 1.808594 0.75 3.671875 1.363281 5.570312 1.839843 l 0.425782 7.320313 c 2.300781 0.464844 4.632812 0.757813 6.972656 0.875 l 2.28125 -6.882813 c 0.109375 0.003907 0.21875 0.011719 0.328125 0.015626 c 1.847656 -0.015626 3.695312 -0.15625 5.523437 -0.425782 l 3.183594 6.574219 c 2.304688 -0.441406 4.570312 -1.058594 6.78125 -1.839844 l -0.527344 -7.246093 c 1.8125 -0.738282 3.5625 -1.613282 5.246094 -2.609376 l 5.472656 4.867188 c 1.953125 -1.296875 3.808594 -2.734375 5.550782 -4.308594 l -3.253907 -6.476562 c 1.386719 -1.382813 2.667969 -2.863282 3.839844 -4.433594 l 6.933594 2.410156 c 1.304687 -1.945312 2.464843 -3.988281 3.464843 -6.109375 l -5.476562 -4.730469 c 0.75 -1.808593 1.367188 -3.671874 1.84375 -5.570312 l 7.320312 -0.425781 c 0.464844 -2.300781 0.757813 -4.628907 0.871094 -6.972657 l -6.882812 -2.28125 c 0.007812 -0.109374 0.011718 -0.21875 0.019531 -0.328124 c -0.015625 -1.847657 -0.160156 -3.695313 -0.429687 -5.523438 l 6.578124 -3.183594 c -0.445312 -2.304687 -1.058593 -4.570312 -1.839843 -6.78125 l -7.246094 0.527344 c -0.742187 -1.8125 -1.613281 -3.5625 -2.613281 -5.246094 l 4.871094 -5.472656 c -1.296876 -1.953125 -2.738282 -3.808594 -4.308594 -5.550781 l -6.476563 3.253906 c -1.382812 -1.386719 -2.863281 -2.667969 -4.433593 -3.839844 l 2.410156 -6.933593 c -1.945313 -1.304688 -3.988282 -2.464844 -6.109375 -3.464844 l -4.734375 5.476562 c -1.808594 -0.75 -3.667969 -1.367187 -5.570313 -1.84375 l -0.425781 -7.320312 c -2.296875 -0.464844 -4.628906 -0.753906 -6.96875 -0.871094 z m -2.613281 17.488281 c 16.175781 0 29.285156 13.109375 29.285156 29.285157 c 0 16.171874 -13.109375 29.28125 -29.285156 29.28125 c -16.171875 0 -29.28125 -13.109376 -29.28125 -29.28125 c 0 -16.175782 13.109375 -29.285157 29.28125 -29.285157 z m 0 0" fill="#98c1f1"/>
        </g>
    </g>
    <g clip-path="url(#f)">
        <g clip-path="url(#g)">
            <path d="m 16.65625 -1.375 l -2.28125 6.882812 c -0.109375 -0.003906 -0.21875 -0.011718 -0.328125 -0.015624 c -1.847656 0.015624 -3.695313 0.15625 -5.523437 0.425781 l -3.183594 -6.574219 c -2.304688 0.441406 -4.570313 1.058594 -6.78125 1.839844 l 0.527344 7.246094 c -1.8125 0.738281 -3.5625 1.613281 -5.246094 2.609374 l -5.472656 -4.867187 c -1.953126 1.292969 -3.808594 2.734375 -5.550782 4.308594 l 3.253906 6.476562 c -1.386718 1.378907 -2.667968 2.863281 -3.839843 4.429688 l -6.933594 -2.410157 c -1.304687 1.949219 -2.464844 3.992188 -3.464844 6.113282 l 5.476563 4.730468 c -0.75 1.808594 -1.367188 3.671876 -1.84375 5.570313 l -7.320313 0.425781 c -0.464843 2.300782 -0.757812 4.628906 -0.871093 6.972656 l 6.882812 2.28125 c -0.007812 0.109376 -0.011719 0.21875 -0.019531 0.328126 c 0.015625 1.847656 0.160156 3.691406 0.429687 5.519531 l -6.578125 3.1875 c 0.445313 2.300781 1.058594 4.570312 1.839844 6.78125 l 7.246094 -0.527344 c 0.742187 1.808594 1.613281 3.5625 2.613281 5.246094 l -4.871094 5.472656 c 1.296875 1.953125 2.738282 3.808594 4.308594 5.550781 l 6.476562 -3.253906 c 1.382813 1.386719 2.863282 2.667969 4.433594 3.835938 l -2.410156 6.9375 c 1.945312 1.304687 3.988281 2.464843 6.109375 3.464843 l 4.734375 -5.476562 c 1.808594 0.75 3.667969 1.367187 5.570312 1.84375 l 0.425782 7.320312 c 2.296875 0.464844 4.628906 0.753907 6.96875 0.871094 l 2.28125 -6.882813 c 0.109375 0.007813 0.222656 0.011719 0.332031 0.015626 c 1.847656 -0.011719 3.691406 -0.15625 5.519531 -0.425782 l 3.183594 6.574219 c 2.304688 -0.441406 4.570312 -1.054687 6.785156 -1.835937 l -0.527344 -7.246094 c 1.808594 -0.742188 3.5625 -1.613282 5.242188 -2.613282 l 5.472656 4.871094 c 1.957032 -1.296875 3.8125 -2.738281 5.550782 -4.308594 l -3.253907 -6.480468 c 1.386719 -1.378906 2.671875 -2.859375 3.839844 -4.429688 l 6.933594 2.410156 c 1.308593 -1.949218 2.464843 -3.992187 3.464843 -6.113281 l -5.472656 -4.730469 c 0.75 -1.808593 1.363282 -3.671874 1.839844 -5.570312 l 7.320312 -0.425781 c 0.464844 -2.296875 0.757813 -4.628907 0.871094 -6.972657 l -6.878906 -2.28125 c 0.003906 -0.109374 0.011719 -0.21875 0.015625 -0.328124 c -0.015625 -1.847657 -0.15625 -3.691407 -0.429687 -5.519532 l 6.578124 -3.183594 c -0.441406 -2.304687 -1.058593 -4.574218 -1.839843 -6.785156 l -7.246094 0.527344 c -0.742187 -1.808594 -1.613281 -3.5625 -2.609375 -5.242188 l 4.867188 -5.472656 c -1.296876 -1.957031 -2.734376 -3.8125 -4.308594 -5.550781 l -6.476563 3.25 c -1.382812 -1.382813 -2.863281 -2.667969 -4.433593 -3.835937 l 2.410156 -6.933594 c -1.945313 -1.308594 -3.988282 -2.464844 -6.109375 -3.464844 l -4.730469 5.472656 c -1.808594 -0.75 -3.671875 -1.363281 -5.570312 -1.839844 l -0.425782 -7.324218 c -2.300781 -0.460938 -4.632812 -0.753906 -6.972656 -0.871094 z m 0 0" fill="#1a5fb4"/>
        </g>
    </g>
    <g mask="url(#h)">
        <use transform="matrix(1 0 0 1 -8 -16)" xlink:href="#r"/>
    </g>
    <g mask="url(#u)">
        <g clip-path="url(#y)">
            <g mask="url(#v)">
                <g clip-path="url(#x)">
                    <path d="m 128 80.640625 v 47.359375 h -128 v -47.359375 z m 0 0" fill="url(#w)"/>
                    <path d="m 13.308594 80.640625 l 47.355468 47.359375 h 21.214844 l -47.359375 -47.359375 z m 42.421875 0 l 47.363281 47.359375 h 21.214844 l -47.363282 -47.359375 z m 42.429687 0 l 29.839844 29.839844 v -21.210938 l -8.628906 -8.628906 z m -98.160156 7.90625 v 21.214844 l 18.238281 18.238281 h 21.214844 z m 0 0"/>
                </g>
            </g>
        </g>
    </g>
</svg>
