<?xml version="1.0" encoding="UTF-8"?>
<svg height="128px" viewBox="0 0 128 128" width="128px" xmlns="http://www.w3.org/2000/svg" xmlns:xlink="http://www.w3.org/1999/xlink">
    <filter id="a" height="100%" width="100%" x="0%" y="0%">
        <feColorMatrix color-interpolation-filters="sRGB" values="0 0 0 0 1 0 0 0 0 1 0 0 0 0 1 0 0 0 1 0"/>
    </filter>
    <linearGradient id="b" gradientUnits="userSpaceOnUse" x1="27.671078" x2="27.671078" y1="1.980936" y2="-2.019064">
        <stop offset="0" stop-color="#77767b"/>
        <stop offset="0.6475" stop-color="#c1bfb9"/>
        <stop offset="0.925" stop-color="#9a9996"/>
        <stop offset="1" stop-color="#77767b"/>
    </linearGradient>
    <linearGradient id="c" gradientUnits="userSpaceOnUse">
        <stop offset="0" stop-color="#fefefe"/>
        <stop offset="0.6" stop-color="#bbbab7"/>
        <stop offset="1" stop-color="#5e5c64"/>
    </linearGradient>
    <radialGradient id="d" cx="183.217087" cy="-92.151802" gradientTransform="matrix(0.00000001 0.97864 -1.033022 -0.00000002 -31.913363 -168.557441)" r="3" xlink:href="#c"/>
    <radialGradient id="e" cx="183.217087" cy="-92.151802" gradientTransform="matrix(-0.00000001 0.97864 1.033022 -0.00000002 191.913369 -168.557441)" r="3" xlink:href="#c"/>
    <linearGradient id="f" gradientTransform="matrix(112 0 0 76 8 40)" gradientUnits="userSpaceOnUse" x1="0" x2="1" y1="0" y2="0">
        <stop offset="0" stop-color="#63452c"/>
        <stop offset="0.0357143" stop-color="#865e3c"/>
        <stop offset="0.0713653" stop-color="#63452c"/>
        <stop offset="0.928571" stop-color="#63452c"/>
        <stop offset="0.964286" stop-color="#865e3c"/>
        <stop offset="1" stop-color="#63452c"/>
    </linearGradient>
    <linearGradient id="g" gradientUnits="userSpaceOnUse">
        <stop offset="0" stop-color="#3f2d1d"/>
        <stop offset="0.25" stop-color="#3f2d1d" stop-opacity="0.498039"/>
        <stop offset="0.5" stop-color="#3f2d1d"/>
        <stop offset="0.75" stop-color="#3f2d1d" stop-opacity="0.498039"/>
        <stop offset="1" stop-color="#3f2d1d"/>
    </linearGradient>
    <linearGradient id="h" x1="100" x2="112" xlink:href="#g" y1="41" y2="41"/>
    <linearGradient id="i" gradientTransform="matrix(-1 0 0 1 112 59)" x1="0" x2="12" xlink:href="#g" y1="0" y2="0"/>
    <linearGradient id="j" gradientUnits="userSpaceOnUse">
        <stop offset="0" stop-color="#3f2d1d"/>
        <stop offset="0.154554" stop-color="#63452c"/>
        <stop offset="0.817953" stop-color="#63452c"/>
        <stop offset="1" stop-color="#3f2d1d"/>
    </linearGradient>
    <linearGradient id="k" x1="100" x2="112" xlink:href="#j" y1="80.25" y2="80.25"/>
    <linearGradient id="l" x1="100" x2="112" xlink:href="#j" y1="86.25" y2="86.25"/>
    <linearGradient id="m" x1="100" x2="112" xlink:href="#j" y1="92.25" y2="92.25"/>
    <clipPath id="n">
        <path d="m 41 0 h 61 v 50 h -61 z m 0 0"/>
    </clipPath>
    <clipPath id="o">
        <path d="m 58 0 h 61 v 50 h -61 z m 0 0"/>
    </clipPath>
    <clipPath id="p">
        <rect height="128" width="128"/>
    </clipPath>
    <clipPath id="q">
        <rect height="128" width="128"/>
    </clipPath>
    <mask id="r">
        <g filter="url(#a)">
            <g clip-path="url(#q)" filter="url(#a)">
                <g clip-path="url(#p)">
                    <g clip-path="url(#n)">
                        <path d="m 0.00116834 0.001524 h 19.99786366" fill="none" stroke="url(#b)" stroke-width="4" transform="matrix(0.707107 0.707107 -0.707107 0.707107 64.441658 12.447315)"/>
                    </g>
                    <path d="m 64.210938 14.445312 c -1.601563 0.429688 -3.246094 -0.519531 -3.675782 -2.121093 c -0.429687 -1.601563 0.519532 -3.246094 2.121094 -3.671875 c 1.601562 -0.429688 3.246094 0.519531 3.675781 2.121094 c 0.429688 1.597656 -0.523437 3.242187 -2.121093 3.671874 z m 0 0" fill="url(#d)"/>
                    <g clip-path="url(#o)">
                        <path d="m 0.00117226 0.00152008 h 19.99786374" fill="none" stroke="url(#b)" stroke-width="4" transform="matrix(-0.707107 0.707107 0.707107 0.707107 95.558348 12.447315)"/>
                    </g>
                    <path d="m 95.789062 14.445312 c 1.601563 0.429688 3.246094 -0.519531 3.675782 -2.121093 c 0.429687 -1.601563 -0.519532 -3.246094 -2.121094 -3.671875 c -1.601562 -0.429688 -3.246094 0.519531 -3.675781 2.121094 c -0.429688 1.597656 0.523437 3.242187 2.121093 3.671874 z m 0 0" fill="url(#e)"/>
                    <path d="m 78 24 h 4 c 1.105469 0 2 0.894531 2 2 v 4 c 0 1.105469 -0.894531 2 -2 2 h -4 c -1.105469 0 -2 -0.894531 -2 -2 v -4 c 0 -1.105469 0.894531 -2 2 -2 z m 0 0" fill="#63452c"/>
                    <path d="m 16 40 h 96 c 4.417969 0 8 3.582031 8 8 v 60 c 0 4.417969 -3.582031 8 -8 8 h -96 c -4.417969 0 -8 -3.582031 -8 -8 v -60 c 0 -4.417969 3.582031 -8 8 -8 z m 0 0" fill="url(#f)"/>
                    <path d="m 16 28 h 96 c 4.417969 0 8 3.582031 8 8 v 64 c 0 4.417969 -3.582031 8 -8 8 h -96 c -4.417969 0 -8 -3.582031 -8 -8 v -64 c 0 -4.417969 3.582031 -8 8 -8 z m 0 0" fill="#865e3c"/>
                    <path d="m 22 42 c 1 -1 2 -2 35 -2 s 34 1 35 2 s 2 2 2 26 s -1 25 -2 26 s -2 2 -35 2 s -34 -1 -35 -2 s -2 -2 -2 -26 s 1 -25 2 -26 z m 0 0" fill="#63452c"/>
                    <path d="m 27 44 c 2 -1 5 -2 30 -2 s 28 1 30 2 s 5 2 5 24 s -3 23 -5 24 s -5 2 -30 2 s -28 -1 -30 -2 s -5 -2 -5 -24 s 3 -23 5 -24 z m 0 0" fill="#99c1f1"/>
                    <path d="m 106 41 c 3.3125 0 6 2.6875 6 6 v 2 c 0 3.3125 -2.6875 6 -6 6 s -6 -2.6875 -6 -6 v -2 c 0 -3.3125 2.6875 -6 6 -6 z m 0 0" fill="url(#h)"/>
                    <path d="m 112 47 c 0 3.3125 -2.6875 6 -6 6 s -6 -2.6875 -6 -6 s 2.6875 -6 6 -6 s 6 2.6875 6 6 z m 0 0" fill="#63452c"/>
                    <path d="m 104.5 44.5 c 0 0.550781 -0.449219 1 -1 1 s -1 -0.449219 -1 -1 s 0.449219 -1 1 -1 s 1 0.449219 1 1 z m 0 0" fill="#3f2d1d"/>
                    <path d="m 106 59 c -3.3125 0 -6 2.6875 -6 6 v 2 c 0 3.3125 2.6875 6 6 6 s 6 -2.6875 6 -6 v -2 c 0 -3.3125 -2.6875 -6 -6 -6 z m 0 0" fill="url(#i)"/>
                    <path d="m 100 65 c 0 3.3125 2.6875 6 6 6 s 6 -2.6875 6 -6 s -2.6875 -6 -6 -6 s -6 2.6875 -6 6 z m 0 0" fill="#63452c"/>
                    <path d="m 107.5 62.5 c 0 0.550781 0.449219 1 1 1 s 1 -0.449219 1 -1 s -0.449219 -1 -1 -1 s -1 0.449219 -1 1 z m 0 0" fill="#3f2d1d"/>
                    <path d="m 102 79 h 8 c 1.105469 0 2 0.894531 2 2 s -0.894531 2 -2 2 h -8 c -1.105469 0 -2 -0.894531 -2 -2 s 0.894531 -2 2 -2 z m 0 0" fill="#3f2d1d"/>
                    <path d="m 102 79 c -1.109375 0 -2 0.890625 -2 2 c 0 0.171875 0.027344 0.339844 0.066406 0.5 c 0.222656 -0.863281 1 -1.5 1.933594 -1.5 h 8 c 0.933594 0 1.710938 0.636719 1.933594 1.5 c 0.039062 -0.160156 0.066406 -0.328125 0.066406 -0.5 c 0 -1.109375 -0.890625 -2 -2 -2 z m 0 0" fill="url(#k)"/>
                    <path d="m 102 85 h 8 c 1.105469 0 2 0.894531 2 2 s -0.894531 2 -2 2 h -8 c -1.105469 0 -2 -0.894531 -2 -2 s 0.894531 -2 2 -2 z m 0 0" fill="#3f2d1d"/>
                    <path d="m 102 85 c -1.109375 0 -2 0.890625 -2 2 c 0 0.171875 0.027344 0.339844 0.066406 0.5 c 0.222656 -0.863281 1 -1.5 1.933594 -1.5 h 8 c 0.933594 0 1.710938 0.636719 1.933594 1.5 c 0.039062 -0.160156 0.066406 -0.328125 0.066406 -0.5 c 0 -1.109375 -0.890625 -2 -2 -2 z m 0 0" fill="url(#l)"/>
                    <path d="m 102 91 h 8 c 1.105469 0 2 0.894531 2 2 s -0.894531 2 -2 2 h -8 c -1.105469 0 -2 -0.894531 -2 -2 s 0.894531 -2 2 -2 z m 0 0" fill="#3f2d1d"/>
                    <path d="m 102 91 c -1.109375 0 -2 0.890625 -2 2 c 0 0.171875 0.027344 0.339844 0.066406 0.5 c 0.222656 -0.863281 1 -1.5 1.933594 -1.5 h 8 c 0.933594 0 1.710938 0.636719 1.933594 1.5 c 0.039062 -0.160156 0.066406 -0.328125 0.066406 -0.5 c 0 -1.109375 -0.890625 -2 -2 -2 z m 0 0" fill="url(#m)"/>
                </g>
            </g>
        </g>
    </mask>
    <mask id="s">
        <g filter="url(#a)">
            <rect fill-opacity="0.8" height="184.32" width="184.32" x="-28.16" y="-28.16"/>
        </g>
    </mask>
    <linearGradient id="t" gradientTransform="matrix(0 0.37 -0.98462 0 295.38501 -30.360001)" gradientUnits="userSpaceOnUse" x1="300" x2="428" y1="235" y2="235">
        <stop offset="0" stop-color="#f9f06b"/>
        <stop offset="1" stop-color="#f5c211"/>
    </linearGradient>
    <clipPath id="u">
        <rect height="128" width="128"/>
    </clipPath>
    <clipPath id="v">
        <rect height="128" width="128"/>
    </clipPath>
    <path d="m 0.00116834 0.001524 h 19.99786366" fill="none" stroke="url(#b)" stroke-width="4" transform="matrix(0.707107 0.707107 -0.707107 0.707107 64.441658 12.447315)"/>
    <path d="m 64.210938 14.445312 c -1.601563 0.429688 -3.246094 -0.519531 -3.675782 -2.121093 c -0.429687 -1.601563 0.519532 -3.246094 2.121094 -3.671875 c 1.601562 -0.429688 3.246094 0.519531 3.675781 2.121094 c 0.429688 1.597656 -0.523437 3.242187 -2.121093 3.671874 z m 0 0" fill="url(#d)"/>
    <path d="m 0.00117226 0.00152008 h 19.99786374" fill="none" stroke="url(#b)" stroke-width="4" transform="matrix(-0.707107 0.707107 0.707107 0.707107 95.558348 12.447315)"/>
    <path d="m 95.789062 14.445312 c 1.601563 0.429688 3.246094 -0.519531 3.675782 -2.121093 c 0.429687 -1.601563 -0.519532 -3.246094 -2.121094 -3.671875 c -1.601562 -0.429688 -3.246094 0.519531 -3.675781 2.121094 c -0.429688 1.597656 0.523437 3.242187 2.121093 3.671874 z m 0 0" fill="url(#e)"/>
    <path d="m 78 24 h 4 c 1.105469 0 2 0.894531 2 2 v 4 c 0 1.105469 -0.894531 2 -2 2 h -4 c -1.105469 0 -2 -0.894531 -2 -2 v -4 c 0 -1.105469 0.894531 -2 2 -2 z m 0 0" fill="#63452c"/>
    <path d="m 16 40 h 96 c 4.417969 0 8 3.582031 8 8 v 60 c 0 4.417969 -3.582031 8 -8 8 h -96 c -4.417969 0 -8 -3.582031 -8 -8 v -60 c 0 -4.417969 3.582031 -8 8 -8 z m 0 0" fill="url(#f)"/>
    <path d="m 16 28 h 96 c 4.417969 0 8 3.582031 8 8 v 64 c 0 4.417969 -3.582031 8 -8 8 h -96 c -4.417969 0 -8 -3.582031 -8 -8 v -64 c 0 -4.417969 3.582031 -8 8 -8 z m 0 0" fill="#865e3c"/>
    <path d="m 22 42 c 1 -1 2 -2 35 -2 s 34 1 35 2 s 2 2 2 26 s -1 25 -2 26 s -2 2 -35 2 s -34 -1 -35 -2 s -2 -2 -2 -26 s 1 -25 2 -26 z m 0 0" fill="#63452c"/>
    <path d="m 27 44 c 2 -1 5 -2 30 -2 s 28 1 30 2 s 5 2 5 24 s -3 23 -5 24 s -5 2 -30 2 s -28 -1 -30 -2 s -5 -2 -5 -24 s 3 -23 5 -24 z m 0 0" fill="#99c1f1"/>
    <path d="m 106 41 c 3.3125 0 6 2.6875 6 6 v 2 c 0 3.3125 -2.6875 6 -6 6 s -6 -2.6875 -6 -6 v -2 c 0 -3.3125 2.6875 -6 6 -6 z m 0 0" fill="url(#h)"/>
    <path d="m 112 47 c 0 3.3125 -2.6875 6 -6 6 s -6 -2.6875 -6 -6 s 2.6875 -6 6 -6 s 6 2.6875 6 6 z m 0 0" fill="#63452c"/>
    <path d="m 104.5 44.5 c 0 0.550781 -0.449219 1 -1 1 s -1 -0.449219 -1 -1 s 0.449219 -1 1 -1 s 1 0.449219 1 1 z m 0 0" fill="#3f2d1d"/>
    <path d="m 106 59 c -3.3125 0 -6 2.6875 -6 6 v 2 c 0 3.3125 2.6875 6 6 6 s 6 -2.6875 6 -6 v -2 c 0 -3.3125 -2.6875 -6 -6 -6 z m 0 0" fill="url(#i)"/>
    <path d="m 100 65 c 0 3.3125 2.6875 6 6 6 s 6 -2.6875 6 -6 s -2.6875 -6 -6 -6 s -6 2.6875 -6 6 z m 0 0" fill="#63452c"/>
    <path d="m 107.5 62.5 c 0 0.550781 0.449219 1 1 1 s 1 -0.449219 1 -1 s -0.449219 -1 -1 -1 s -1 0.449219 -1 1 z m 0 0" fill="#3f2d1d"/>
    <path d="m 102 79 h 8 c 1.105469 0 2 0.894531 2 2 s -0.894531 2 -2 2 h -8 c -1.105469 0 -2 -0.894531 -2 -2 s 0.894531 -2 2 -2 z m 0 0" fill="#3f2d1d"/>
    <path d="m 102 79 c -1.109375 0 -2 0.890625 -2 2 c 0 0.171875 0.027344 0.339844 0.066406 0.5 c 0.222656 -0.863281 1 -1.5 1.933594 -1.5 h 8 c 0.933594 0 1.710938 0.636719 1.933594 1.5 c 0.039062 -0.160156 0.066406 -0.328125 0.066406 -0.5 c 0 -1.109375 -0.890625 -2 -2 -2 z m 0 0" fill="url(#k)"/>
    <path d="m 102 85 h 8 c 1.105469 0 2 0.894531 2 2 s -0.894531 2 -2 2 h -8 c -1.105469 0 -2 -0.894531 -2 -2 s 0.894531 -2 2 -2 z m 0 0" fill="#3f2d1d"/>
    <path d="m 102 85 c -1.109375 0 -2 0.890625 -2 2 c 0 0.171875 0.027344 0.339844 0.066406 0.5 c 0.222656 -0.863281 1 -1.5 1.933594 -1.5 h 8 c 0.933594 0 1.710938 0.636719 1.933594 1.5 c 0.039062 -0.160156 0.066406 -0.328125 0.066406 -0.5 c 0 -1.109375 -0.890625 -2 -2 -2 z m 0 0" fill="url(#l)"/>
    <path d="m 102 91 h 8 c 1.105469 0 2 0.894531 2 2 s -0.894531 2 -2 2 h -8 c -1.105469 0 -2 -0.894531 -2 -2 s 0.894531 -2 2 -2 z m 0 0" fill="#3f2d1d"/>
    <path d="m 102 91 c -1.109375 0 -2 0.890625 -2 2 c 0 0.171875 0.027344 0.339844 0.066406 0.5 c 0.222656 -0.863281 1 -1.5 1.933594 -1.5 h 8 c 0.933594 0 1.710938 0.636719 1.933594 1.5 c 0.039062 -0.160156 0.066406 -0.328125 0.066406 -0.5 c 0 -1.109375 -0.890625 -2 -2 -2 z m 0 0" fill="url(#m)"/>
    <g mask="url(#r)">
        <g clip-path="url(#v)">
            <g mask="url(#s)">
                <g clip-path="url(#u)">
                    <path d="m 128 80.640625 v 47.359375 h -128 v -47.359375 z m 0 0" fill="url(#t)"/>
                    <path d="m 13.308594 80.640625 l 47.355468 47.359375 h 21.214844 l -47.359375 -47.359375 z m 42.421875 0 l 47.363281 47.359375 h 21.214844 l -47.363282 -47.359375 z m 42.429687 0 l 29.839844 29.839844 v -21.210938 l -8.628906 -8.628906 z m -98.160156 7.90625 v 21.214844 l 18.238281 18.238281 h 21.214844 z m 0 0"/>
                </g>
            </g>
        </g>
    </g>
</svg>
